<svg xmlns="http://www.w3.org/2000/svg" viewBox="146 416 727 194" fill="#0E0E0E" role="img" aria-label="Maison">
<path d="M181.794 423.636C182.427 423.752 184.192 424.053 184.52 424.739C187.109 430.141 189.568 435.606 192.092 441.04L210.718 480.729C224.568 510.63 238.763 540.369 253.3 569.942C256.263 563.03 259.983 556.17 263.297 549.37L280.092 514.645L317.84 436.787C319.431 433.53 322.822 425.232 325.699 424.243C328.116 427.94 347.453 580.63 349.614 597.161L331.161 597.232C327.577 560.841 322.109 520.631 317.184 484.25C316.449 477.983 315.727 472.624 314.623 466.416C309.166 476.657 304.026 487.682 298.889 498.157L262.707 572.443C260.706 576.472 250.7 598.167 248.949 599.31L247.963 599.081C247.186 598.384 246.966 598.187 246.513 597.21L184.31 465.838C182.389 474.328 180.348 492.485 178.871 501.854L164.279 596.459L152.384 596.428C157.877 561.89 163.662 527.398 169.737 492.957L176.733 453.026C178.303 443.689 179.809 432.65 181.794 423.636Z"/>
<path fill-rule="evenodd" d="M416.234 476.205C416.891 476.146 417.549 476.106 418.208 476.084C429.355 475.644 441.713 477.863 450.076 485.76C463.808 498.73 460.173 519.455 460.855 536.718C461.639 556.555 461.403 576.795 462.01 596.729L445.579 596.484C445.758 589.948 445.517 582.418 445.453 575.808C437.762 586.295 429.821 593.879 416.977 597.42C406.493 600.309 392.822 599.7 383.334 594.058C375.003 589.103 371.763 583.241 369.398 574.294C362.682 533.136 415.182 524.636 445.015 522.489C445.422 509.695 445.377 488.931 430.287 483.884C420 480.444 407.578 483.633 400.892 492.354C397.657 496.574 396.644 499.475 395.079 504.499L375.308 504.37C382.011 484.877 396.76 477.777 416.234 476.205ZM442.319 528.709C444.05 528.476 443.285 528.326 444.731 528.906C445.216 532.017 445.391 558.32 444.706 562.07C444.1 565.221 442.956 568.244 441.326 571.008C432.132 586.94 412.663 592.76 396.762 583.408C391.724 579.744 389.082 575.643 388.457 569.336C385.494 539.416 419.398 531.371 442.319 528.709Z"/>
<path d="M491.427 477.94C496.974 477.957 502.521 477.911 508.068 477.803C508.413 517.544 508.477 557.288 508.26 597.031L491.276 596.896C492.611 558.472 490.9 516.832 491.427 477.94Z"/>
<path d="M497.87 427.863C504.504 426.784 510.754 431.296 511.817 437.933C512.88 444.569 508.352 450.808 501.713 451.855C495.097 452.898 488.885 448.389 487.826 441.776C486.766 435.162 491.259 428.939 497.87 427.863Z"/>
<path d="M564.805 476.66C584.05 474.526 599.08 480.072 609.117 496.968C604.869 499.61 599.606 502.256 595.051 504.277C591.102 492.523 583.116 483.479 569.915 483.498C558.984 483.513 547.116 492.086 548.419 503.751C550.873 525.713 583.837 527.988 597.23 541.471C604.315 548.603 608.106 554.715 608.589 564.9C609.415 588.82 591.309 598.645 570.407 599.085C549.955 598.519 539.721 590.217 529.066 573.504C532.341 571.727 540.999 568.218 544.498 566.921C549.778 581.098 558.801 593.262 575.729 590.848C587.162 589.217 595.764 579.64 593.966 567.91C591.69 556.102 578.473 550.653 568.575 546.399C554.287 540.286 536.443 533.454 533.992 515.699C531.032 494.261 544.386 479.74 564.805 476.66Z"/>
<path fill-rule="evenodd" d="M680.918 476.361C714.816 473.512 744.638 498.602 747.632 532.487C750.625 566.372 725.664 596.301 691.792 599.44C657.714 602.598 627.563 577.451 624.551 543.361C621.539 509.27 646.815 479.226 680.918 476.361ZM680.9 483.677C741.585 475.514 742.101 587.092 692.112 592.43C664.507 595.766 649.25 577.462 644.841 551.51C641.81 533.666 644.736 512.71 655.372 497.742C661.521 489.088 670.585 485.22 680.9 483.677Z"/>
<path d="M826.211 476.199C846.289 474.133 862.745 483.032 866.35 503.71C868.309 514.948 867.518 528.397 867.498 539.929L867.433 597.079L849.974 596.909C850.128 578.303 850.143 559.697 850.019 541.091C849.969 526.843 853.071 500.075 839.69 491.256C827.912 483.493 812.391 486.363 800.959 493.406C789.577 501.868 787.959 509.611 788.448 523.31C788.633 528.491 788.461 534.698 788.469 539.963L788.513 597.018L771.493 597.002L771.604 477.819C777.234 477.944 781.905 477.833 787.513 477.612C787.399 484.288 787.205 490.892 787.509 497.563C797.08 484.001 809.854 477.817 826.211 476.199Z"/>
</svg>
