<svg xmlns="http://www.w3.org/2000/svg" viewBox="48.71 502.75 790.54 705.89">
  <path fill="#fff" d="M172.19,510.75c2.49.46,9.42,1.64,10.71,4.33,10.17,21.21,19.82,42.68,29.74,64.02l73.15,155.86c54.39,117.42,110.14,234.21,167.22,350.35,11.64-27.14,26.24-54.08,39.26-80.79l65.96-136.37,148.24-305.75c6.25-12.79,19.56-45.38,30.86-49.26,9.49,14.52,85.43,614.14,93.92,679.06l-72.47.28c-14.07-142.91-35.55-300.82-54.89-443.69-2.89-24.61-5.72-45.66-10.06-70.04-21.43,40.22-41.62,83.51-61.79,124.65l-142.09,291.73c-7.86,15.82-47.15,101.02-54.03,105.51l-3.87-.9c-3.05-2.74-3.92-3.51-5.69-7.35l-244.28-515.91c-7.54,33.34-15.56,104.64-21.36,141.44l-57.3,371.52-46.71-.12c21.57-135.63,44.29-271.09,68.15-406.34l27.47-156.81c6.17-36.67,12.08-80.02,19.87-115.42Z"/>
</svg>
